<?xml version="1.0" encoding="UTF-8" standalone="no"?><!DOCTYPE svg PUBLIC "-//W3C//DTD SVG 1.1//EN" "http://www.w3.org/Graphics/SVG/1.1/DTD/svg11.dtd"><svg width="100%" height="100%" viewBox="0 0 600 872" version="1.1" xmlns="http://www.w3.org/2000/svg" xmlns:xlink="http://www.w3.org/1999/xlink" xml:space="preserve" xmlns:serif="http://www.serif.com/" style="fill-rule:evenodd;clip-rule:evenodd;stroke-linejoin:round;stroke-miterlimit:2;"><path d="M579.557,0.815c3.551,0 7.103,0 10.797,0.25c1.931,1.45 3.873,2.475 5.476,3.886c3.459,3.045 3.383,7.211 3.372,11.391c-0.003,1.07 1.005,2.143 1.548,3.214c0,1.932 0,3.863 -0.312,5.91c-0.648,1.488 -1.189,2.846 -1.282,4.235c-0.365,5.493 0.155,11.158 -1.005,16.463c-3.41,15.602 -7.07,31.174 -11.393,46.543c-3.562,12.665 -7.921,25.132 -12.474,37.485c-3.195,8.67 -7.121,17.09 -11.053,25.465c-8.578,18.272 -17.003,36.631 -26.209,54.586c-5.503,10.734 -12.196,20.879 -18.665,31.092c-6.822,10.77 -13.773,21.475 -21.121,31.889c-5.906,8.371 -12.207,16.504 -18.838,24.314c-10.478,12.342 -21.044,24.644 -32.216,36.349c-7.779,8.15 -16.511,15.416 -25.052,22.806c-7.052,6.102 -14.127,12.268 -21.768,17.577c-10.947,7.606 -22.208,14.82 -33.731,21.521c-9.767,5.681 -19.893,10.859 -30.236,15.405c-9.521,4.185 -19.406,7.69 -29.379,10.659c-11.037,3.285 -22.244,6.311 -33.586,8.18c-11.785,1.942 -23.805,2.927 -35.753,3.279c-10.031,0.295 -20.248,-0.061 -30.123,-1.699c-10.875,-1.804 -21.712,-4.138 -32.118,-8.478c-7.975,-3.326 -15.83,-6.579 -23.098,-11.293c-1.339,-0.869 -3.843,-0.85 -5.446,-0.257c-10.53,3.891 -20.924,8.151 -31.434,12.1c-13.131,4.934 -25.314,11.216 -34.04,22.707c-8.354,11.002 -13.18,23.247 -11.844,37.213c0.678,7.089 3.937,13.676 9.406,18.095c8.863,7.162 19.358,9.126 30.199,5.08c20.423,-7.623 40.729,-15.565 61.007,-23.57c21.014,-8.296 41.915,-16.878 62.906,-25.236c23.65,-9.417 47.348,-18.713 71.018,-28.08c14.81,-5.861 29.605,-11.758 44.408,-17.635c14.077,-5.589 28.098,-11.323 42.248,-16.719c16.09,-6.136 32.803,-9.949 49.984,-10.832c16.704,-0.858 33.151,0.932 49.459,5.405c19.861,5.447 37.072,15.286 52.298,28.721c9.718,8.575 17.919,18.521 24.503,29.857c10.324,17.777 17.091,36.621 18.366,57.19c0.668,10.774 0.614,21.592 0.883,32.39c0.02,0.814 -0.085,1.642 0.026,2.442c0.712,5.143 -0.221,6.72 -4.829,8.469c-6.345,2.408 -12.68,4.845 -18.98,7.368c-16.85,6.75 -33.668,13.576 -50.518,20.327c-22.42,8.984 -44.862,17.913 -67.285,26.888c-19.638,7.86 -39.205,15.901 -58.939,23.511c-4.241,1.636 -5.748,3.926 -5.742,8.208c0.066,47.259 0.041,94.517 0.041,141.776l0,4.327c-8.769,3.786 -17.344,7.579 -25.991,11.2c-14.57,6.103 -29.217,12.022 -43.772,18.158c-13.124,5.533 -26.126,11.357 -39.26,16.867c-17.093,7.171 -34.274,14.133 -51.398,21.231c-17.008,7.05 -34.001,14.138 -50.965,21.294c-0.896,0.378 -1.46,1.544 -2.178,2.343c-3.01,0 -6.02,0 -9.406,-0.382c-0.375,-103.219 -0.375,-206.057 -0.375,-309.235c-5.661,2.129 -11.058,4.096 -16.409,6.182c-19.394,7.561 -39.462,10.375 -59.95,6.687c-21.088,-3.796 -39.391,-13.29 -53.982,-29.445c-11.917,-13.195 -19.994,-28.192 -22.971,-45.82c-0.079,-0.468 -1.022,-0.79 -1.562,-1.18c0,-13.598 0,-27.195 0.339,-41.179c0.652,-0.727 1.129,-1.017 1.254,-1.416c2.838,-9.085 4.978,-18.456 8.623,-27.201c3.985,-9.562 9.615,-18.268 16.177,-26.523c11.628,-14.63 25.257,-26.612 41.997,-34.754c11.143,-5.42 22.674,-10.088 34.223,-14.601c2.808,-1.097 2.241,-2.26 1.776,-4.025c-3.829,-14.541 -4.172,-29.222 -2.606,-44.139c1.274,-12.134 4.138,-23.826 8.021,-35.289c6.532,-19.286 15.845,-37.15 26.96,-54.264c10.004,-15.402 21.464,-29.539 33.807,-42.985c7.331,-7.986 15.17,-15.608 23.462,-22.585c10.105,-8.503 20.613,-16.614 31.509,-24.074c17.63,-12.071 36.421,-22.169 57.186,-27.748c11.645,-3.129 23.577,-5.289 35.468,-7.386c19.157,-3.378 38.543,-4.109 57.961,-4.134c1.087,-0.001 2.206,0.164 3.255,-0.035c12.667,-2.402 25.437,-4.395 37.951,-7.436c11.27,-2.739 22.39,-6.265 33.331,-10.135c11.417,-4.039 22.643,-8.669 33.759,-13.487c7.853,-3.404 15.457,-7.413 23.038,-11.406c8.506,-4.481 17.001,-9.015 25.245,-13.955c8.663,-5.191 16.852,-11.178 25.568,-16.271c6.866,-4.012 12.151,-10.609 20.336,-12.456c0.117,-0.026 0.07,-0.778 0.1,-1.191m-196.056,345.5c5.99,-4.899 12.312,-9.448 17.898,-14.77c10.714,-10.207 21.4,-20.497 31.37,-31.416c9.795,-10.727 19.243,-21.872 27.831,-33.575c9.685,-13.197 18.498,-27.062 27.209,-40.938c7.147,-11.384 14.155,-22.923 20.21,-34.906c8.831,-17.474 17.318,-35.171 24.887,-53.219c6.296,-15.012 11.472,-30.537 16.368,-46.079c3.949,-12.538 6.74,-25.44 10.236,-38.915c-5.5,3.285 -10.093,6.224 -14.864,8.84c-11.902,6.526 -23.728,13.221 -35.883,19.248c-10.847,5.378 -21.967,10.261 -33.195,14.799c-12.204,4.933 -24.461,9.944 -37.078,13.596c-15.08,4.365 -30.503,7.639 -45.902,10.773c-8.551,1.74 -17.342,2.377 -26.053,3.235c-5.581,0.55 -11.228,0.404 -16.816,0.903c-13.929,1.244 -27.856,2.547 -41.756,4.074c-13.766,1.513 -26.966,5.563 -39.573,11.012c-8.533,3.688 -16.76,8.451 -24.389,13.784c-13.611,9.515 -26.871,19.649 -38.342,31.725c-8.676,9.134 -16.54,19.039 -24.77,28.598c-11.094,12.886 -19.367,27.594 -26.321,42.927c-4.326,9.539 -6.942,19.857 -10.224,29.859c-0.568,1.73 -0.627,3.626 -0.87,5.129c7.247,-5.778 14.314,-11.621 21.599,-17.178c16.82,-12.829 36.103,-18.272 57.037,-18.839c5.572,-0.151 11.347,-0.24 16.638,-1.736c10.494,-2.968 21.129,-6.025 30.939,-10.665c10.453,-4.945 19.948,-11.884 30.001,-17.713c4.991,-2.893 10.662,-3.613 16.053,-1.623c7.433,2.744 10.606,9.01 9.455,17.305c-1.588,11.446 -3.917,22.697 -7.912,33.614c-6.026,16.467 -13.1,32.356 -22.055,47.51c-8.324,14.086 -17.792,27.2 -28.967,39.073c-5.076,5.394 -10.393,10.661 -16.173,15.266c-6.215,4.951 -13.068,9.109 -19.71,13.511c-3.258,2.159 -6.669,4.089 -10.088,6.169c3.2,0.401 6.102,1.023 9.015,1.08c7.604,0.149 15.213,0.06 22.82,0.048c10.95,-0.018 21.827,-1.254 32.312,-4.197c13.906,-3.902 27.65,-8.441 41.287,-13.21c6.583,-2.302 12.927,-5.451 19.086,-8.762c7.81,-4.198 15.399,-8.826 22.934,-13.508c5.242,-3.257 10.233,-6.918 15.754,-10.83m-58.229,230.133c1.621,-0.524 3.278,-0.957 4.857,-1.585c25.715,-10.236 51.432,-20.467 77.125,-30.758c35.03,-14.03 70.034,-28.128 105.079,-42.121c1.834,-0.732 1.89,-1.178 1.357,-3.108c-2.133,-7.728 -5.927,-14.565 -10.823,-20.738c-7.76,-9.784 -17.747,-16.892 -29.494,-20.859c-10.291,-3.475 -20.914,-5.042 -32.071,-3.616c-10.285,1.315 -20.225,3.549 -29.773,7.293c-21.154,8.294 -42.139,17.017 -63.237,25.456c-22.789,9.115 -45.65,18.049 -68.437,27.168c-17.218,6.89 -34.309,14.102 -51.605,20.787c-3.092,1.195 -4.151,2.32 -4.147,5.539c0.077,76.049 0.059,152.098 0.067,228.147c0,1.155 0.112,2.31 0.193,3.889c10.233,-4.277 20.109,-8.353 29.944,-12.529c16.475,-6.995 32.855,-14.221 49.42,-20.996c5.826,-2.383 7.531,-1.807 7.579,-10.925c0.054,-10.389 -0.673,-20.781 -0.702,-31.173c-0.099,-34.765 -0.106,-69.531 0.032,-104.296c0.022,-5.592 1.653,-10.711 7.957,-12.694c2.109,-0.663 4.121,-1.633 6.68,-2.882m-59.937,-270.893c4.702,-10.092 9.404,-20.184 14.106,-30.276c-7.462,2.041 -13.805,5.033 -20.439,7.083c-9.488,2.932 -19.081,5.777 -28.832,7.525c-8.115,1.455 -16.563,0.947 -24.786,1.942c-5.27,0.638 -10.99,1.375 -15.487,3.89c-15.104,8.448 -26.928,20.349 -33.634,36.616c-2.693,6.532 -4.605,13.581 -2.424,20.527c3.781,12.045 12.729,16.749 25.215,17.807c9.341,0.792 18.295,-1.47 27.028,-4.79c12.04,-4.576 22.212,-11.992 31.019,-21.096c11.135,-11.51 20.302,-24.576 28.235,-39.228l-0,-0Z" style="fill:#fff;fill-rule:nonzero;"/></svg>