<?xml version="1.0" encoding="UTF-8" standalone="no"?><!DOCTYPE svg PUBLIC "-//W3C//DTD SVG 1.1//EN" "http://www.w3.org/Graphics/SVG/1.1/DTD/svg11.dtd"><svg width="100%" height="100%" viewBox="0 0 3067 4459" version="1.1" xmlns="http://www.w3.org/2000/svg" xmlns:xlink="http://www.w3.org/1999/xlink" xml:space="preserve" xmlns:serif="http://www.serif.com/" style="fill-rule:evenodd;clip-rule:evenodd;stroke-linejoin:round;stroke-miterlimit:2;"><path d="M2962.5,4.167c18.154,0 36.308,0 55.189,1.278c9.87,7.415 19.8,12.658 27.993,19.873c17.682,15.571 17.293,36.876 17.237,58.247c-0.014,5.471 5.137,10.956 7.914,16.435c0,9.877 0,19.755 -1.596,30.22c-3.31,7.607 -6.08,14.555 -6.551,21.657c-1.865,28.088 0.792,57.055 -5.137,84.186c-17.433,79.779 -36.142,159.407 -58.239,238.001c-18.209,64.765 -40.49,128.514 -63.762,191.683c-16.333,44.333 -36.399,87.388 -56.498,130.217c-43.847,93.433 -86.912,187.313 -133.97,279.128c-28.132,54.888 -62.341,106.767 -95.409,158.99c-34.871,55.071 -70.403,109.814 -107.964,163.065c-30.192,42.803 -62.398,84.394 -96.292,124.331c-53.56,63.109 -107.568,126.02 -164.678,185.874c-39.764,41.675 -84.398,78.832 -128.056,116.621c-36.048,31.203 -72.215,62.733 -111.273,89.882c-55.958,38.894 -113.52,75.781 -172.42,110.049c-49.928,29.048 -101.687,55.526 -154.556,78.775c-48.667,21.401 -99.195,39.325 -150.176,54.505c-56.42,16.8 -113.704,32.274 -171.682,41.831c-60.243,9.93 -121.681,14.967 -182.755,16.767c-51.273,1.511 -103.503,-0.314 -153.977,-8.69c-55.591,-9.225 -110.984,-21.16 -164.175,-43.35c-40.763,-17.006 -80.92,-33.641 -118.067,-57.749c-6.845,-4.442 -19.646,-4.345 -27.84,-1.315c-53.828,19.898 -106.956,41.681 -160.678,61.875c-67.121,25.231 -129.399,57.351 -174.001,116.113c-42.703,56.26 -67.371,118.876 -60.542,190.291c3.466,36.248 20.125,69.931 48.079,92.529c45.303,36.624 98.952,46.668 154.366,25.976c104.396,-38.982 208.195,-79.591 311.847,-120.524c107.419,-42.421 214.257,-86.308 321.552,-129.045c120.891,-48.152 242.028,-95.688 363.02,-143.587c75.702,-29.969 151.331,-60.124 227,-90.178c71.956,-28.579 143.628,-57.902 215.96,-85.494c82.249,-31.376 167.68,-50.877 255.502,-55.389c85.383,-4.387 169.457,4.767 252.819,27.639c101.522,27.855 189.498,78.168 267.328,146.864c49.677,43.846 91.598,94.709 125.249,152.673c52.774,90.904 87.362,187.263 93.883,292.443c3.415,55.091 3.141,110.412 4.512,165.629c0.103,4.164 -0.432,8.398 0.135,12.488c3.64,26.298 -1.131,34.364 -24.685,43.306c-32.434,12.314 -64.818,24.774 -97.02,37.678c-86.13,34.514 -172.102,69.421 -258.229,103.944c-114.604,45.938 -229.318,91.598 -343.939,137.493c-100.381,40.194 -200.402,81.311 -301.276,120.224c-21.681,8.364 -29.382,20.077 -29.351,41.97c0.336,241.658 0.211,483.316 0.211,724.974l0,22.125c-44.822,19.358 -88.656,38.755 -132.856,57.274c-74.476,31.206 -149.347,61.473 -223.749,92.852c-67.086,28.293 -133.546,58.074 -200.682,86.248c-87.375,36.668 -175.196,72.269 -262.728,108.565c-86.941,36.051 -173.803,72.295 -260.517,108.886c-4.581,1.933 -7.462,7.896 -11.135,11.983c-15.387,0 -30.774,0 -48.081,-1.953c-1.919,-527.816 -1.919,-1053.679 -1.919,-1581.281c-28.935,10.886 -56.524,20.946 -83.877,31.614c-99.138,38.663 -201.718,53.053 -306.442,34.194c-107.796,-19.412 -201.356,-67.96 -275.94,-150.57c-60.918,-67.472 -102.205,-144.159 -117.421,-234.304c-0.404,-2.393 -5.225,-4.04 -7.986,-6.035c0,-69.532 0,-139.063 1.731,-210.572c3.332,-3.72 5.773,-5.2 6.411,-7.242c14.509,-46.454 25.448,-94.374 44.078,-139.094c20.371,-48.898 49.15,-93.412 82.691,-135.628c59.436,-74.81 129.107,-136.081 214.676,-177.718c56.961,-27.717 115.901,-51.584 174.937,-74.662c14.355,-5.611 11.453,-11.555 9.077,-20.583c-19.573,-74.358 -21.326,-149.428 -13.32,-225.708c6.512,-62.046 21.154,-121.836 41,-180.45c33.391,-98.62 80.992,-189.966 137.813,-277.482c51.135,-78.758 109.719,-151.048 172.811,-219.804c37.473,-40.838 77.544,-79.813 119.929,-115.49c51.655,-43.48 105.366,-84.954 161.061,-123.101c90.121,-61.726 186.172,-113.364 292.317,-141.89c59.527,-15.998 120.517,-27.048 181.299,-37.771c97.923,-17.275 197.021,-21.011 296.278,-21.141c5.555,-0.007 11.275,0.841 16.64,-0.177c64.752,-12.281 130.026,-22.474 193.994,-38.025c57.608,-14.005 114.45,-32.034 170.378,-51.825c58.36,-20.651 115.746,-44.328 172.566,-68.967c40.143,-17.407 79.011,-37.906 117.763,-58.326c43.482,-22.913 86.905,-46.1 129.043,-71.357c44.283,-26.543 86.144,-57.161 130.697,-83.204c35.095,-20.514 62.114,-54.251 103.951,-63.693c0.598,-0.135 0.36,-3.979 0.512,-6.092m-1002.174,1766.725c30.618,-25.049 62.936,-48.314 91.491,-75.527c54.768,-52.194 109.388,-104.814 160.354,-160.649c50.071,-54.854 98.362,-111.841 142.265,-171.685c49.508,-67.485 94.554,-138.383 139.083,-209.339c36.532,-58.21 72.354,-117.219 103.308,-178.493c45.141,-89.356 88.526,-179.848 127.216,-272.137c32.182,-76.766 58.64,-156.153 83.666,-235.627c20.188,-64.111 34.455,-130.086 52.323,-198.993c-28.114,16.798 -51.593,31.827 -75.979,45.202c-60.841,33.37 -121.291,67.606 -183.421,98.425c-55.444,27.503 -112.29,52.47 -169.681,75.677c-62.385,25.227 -125.035,50.85 -189.531,69.526c-77.084,22.322 -155.921,39.061 -234.636,55.086c-43.712,8.899 -88.649,12.157 -133.174,16.543c-28.528,2.81 -57.396,2.067 -85.96,4.62c-71.202,6.362 -142.391,13.022 -213.445,20.833c-70.369,7.735 -137.842,28.449 -202.282,56.31c-43.62,18.859 -85.672,43.216 -124.668,70.486c-69.577,48.656 -137.356,100.474 -195.991,162.225c-44.351,46.707 -84.548,97.358 -126.614,146.237c-56.707,65.891 -98.998,141.102 -134.545,219.511c-22.113,48.776 -35.485,101.54 -52.261,152.684c-2.901,8.846 -3.205,18.544 -4.448,26.229c37.045,-29.545 73.167,-59.424 110.407,-87.838c85.979,-65.601 184.547,-93.432 291.552,-96.333c28.482,-0.772 58.002,-1.226 85.049,-8.879c53.643,-15.177 108.005,-30.807 158.148,-54.538c53.431,-25.286 101.97,-60.771 153.357,-90.575c25.51,-14.796 54.503,-18.475 82.059,-8.3c37.997,14.03 54.212,46.074 48.329,88.488c-8.118,58.53 -20.021,116.063 -40.442,171.884c-30.805,84.206 -66.964,165.454 -112.736,242.942c-42.548,72.029 -90.948,139.089 -148.069,199.801c-25.949,27.581 -53.123,54.516 -82.672,78.065c-31.767,25.315 -66.799,46.578 -100.751,69.088c-16.655,11.042 -34.09,20.908 -51.565,31.546c16.359,2.052 31.191,5.233 46.08,5.524c38.869,0.761 77.764,0.307 116.648,0.244c55.973,-0.091 111.572,-6.413 165.168,-21.459c71.081,-19.955 141.337,-43.164 211.047,-67.548c33.651,-11.771 66.079,-27.873 97.56,-44.804c39.921,-21.469 78.715,-45.132 117.233,-69.075c26.795,-16.656 52.306,-35.377 80.527,-55.377m-297.649,1176.791c8.285,-2.679 16.755,-4.892 24.827,-8.106c131.447,-52.34 262.903,-104.659 394.238,-157.281c179.063,-71.745 357.989,-143.831 537.127,-215.388c9.373,-3.745 9.659,-6.023 6.935,-15.895c-10.903,-39.518 -30.298,-74.479 -55.325,-106.045c-39.667,-50.032 -90.715,-86.38 -150.761,-106.663c-52.605,-17.769 -106.907,-25.784 -163.938,-18.491c-52.573,6.722 -103.383,18.148 -152.191,37.292c-108.132,42.413 -215.402,87.019 -323.248,130.171c-116.489,46.609 -233.347,92.294 -349.827,138.925c-88.011,35.234 -175.375,72.111 -263.786,106.295c-15.804,6.111 -21.216,11.861 -21.199,28.326c0.394,388.88 0.302,777.76 0.344,1166.639c0.001,5.906 0.572,11.812 0.989,19.888c52.306,-21.873 102.793,-42.714 153.064,-64.067c84.216,-35.77 167.945,-72.718 252.618,-107.365c29.781,-12.186 38.495,-9.24 38.739,-55.865c0.278,-53.126 -3.439,-106.264 -3.59,-159.402c-0.504,-177.772 -0.544,-355.548 0.166,-533.319c0.114,-28.594 8.448,-54.772 40.672,-64.912c10.779,-3.392 21.066,-8.348 34.147,-14.738m-306.376,-1385.219c24.034,-51.606 48.068,-103.212 72.103,-154.819c-38.144,10.438 -70.567,25.738 -104.478,36.221c-48.499,14.992 -97.535,29.539 -147.382,38.481c-41.48,7.441 -84.662,4.841 -126.698,9.929c-26.94,3.261 -56.175,7.029 -79.165,19.892c-77.206,43.199 -137.649,104.055 -171.925,187.237c-13.764,33.403 -23.538,69.449 -12.392,104.964c19.329,61.594 65.066,85.645 128.892,91.059c47.746,4.05 93.52,-7.519 138.159,-24.492c61.542,-23.401 113.54,-61.32 158.56,-107.876c56.918,-58.858 103.775,-125.669 144.327,-200.595Z" style="fill:#fff;fill-rule:nonzero;"/></svg>