<?xml version="1.0" encoding="UTF-8" standalone="no"?><!DOCTYPE svg PUBLIC "-//W3C//DTD SVG 1.1//EN" "http://www.w3.org/Graphics/SVG/1.1/DTD/svg11.dtd"><svg width="100%" height="100%" viewBox="0 0 9071 4425" version="1.1" xmlns="http://www.w3.org/2000/svg" xmlns:xlink="http://www.w3.org/1999/xlink" xml:space="preserve" xmlns:serif="http://www.serif.com/" style="fill-rule:evenodd;clip-rule:evenodd;stroke-linejoin:round;stroke-miterlimit:2;"><g><g><rect x="3728.95" y="547.917" width="66.667" height="3333.333" style="fill:#fffcfc;"/></g><clipPath id="_clip1"><rect x="0" y="0" width="3043.614" height="4425"/></clipPath><g clip-path="url(#_clip1)"><path d="M2939.911,4.135c18.016,0 36.031,0 54.768,1.268c9.795,7.358 19.649,12.561 27.78,19.721c17.547,15.452 17.161,36.595 17.106,57.803c-0.014,5.429 5.098,10.872 7.854,16.31c0,9.802 0,19.604 -1.584,29.99c-3.285,7.549 -6.034,14.444 -6.501,21.492c-1.851,27.874 0.786,56.62 -5.098,83.544c-17.3,79.171 -35.866,158.192 -57.795,236.186c-18.07,64.271 -40.181,127.534 -63.276,190.221c-16.208,43.995 -36.121,86.722 -56.067,129.224c-43.513,92.721 -86.249,185.885 -132.948,277c-27.917,54.469 -61.866,105.953 -94.682,157.778c-34.605,54.651 -69.866,108.977 -107.141,161.822c-29.962,42.477 -61.922,83.75 -95.558,123.383c-53.152,62.628 -106.748,125.059 -163.422,184.457c-39.461,41.357 -83.754,78.231 -127.08,115.732c-35.773,30.965 -71.664,62.255 -110.425,89.197c-55.531,38.597 -112.654,75.203 -171.105,109.21c-49.547,28.827 -100.912,55.103 -153.378,78.174c-48.296,21.238 -98.439,39.025 -149.031,54.089c-55.99,16.672 -112.837,32.028 -170.373,41.512c-59.784,9.854 -120.753,14.853 -181.361,16.639c-50.882,1.499 -102.714,-0.312 -152.803,-8.624c-55.167,-9.155 -110.138,-20.999 -162.923,-43.019c-40.452,-16.876 -80.303,-33.384 -117.167,-57.309c-6.793,-4.408 -19.496,-4.312 -27.628,-1.305c-53.418,19.746 -106.14,41.363 -159.453,61.403c-66.609,25.039 -128.412,56.914 -172.674,115.228c-42.377,55.831 -66.857,117.97 -60.08,188.84c3.44,35.972 19.972,69.398 47.712,91.823c44.958,36.345 98.197,46.312 153.189,25.778c103.6,-38.685 206.608,-78.984 309.469,-119.605c106.6,-42.098 212.623,-85.65 319.1,-128.061c119.969,-47.785 240.183,-94.958 360.252,-142.492c75.125,-29.74 150.177,-59.666 225.269,-89.49c71.407,-28.361 142.533,-57.46 214.313,-84.842c81.622,-31.137 166.401,-50.489 253.554,-54.967c84.732,-4.354 168.165,4.731 250.891,27.428c100.748,27.643 188.053,77.572 265.29,145.744c49.298,43.512 90.9,93.987 124.294,151.509c52.372,90.211 86.696,185.835 93.167,290.213c3.389,54.671 3.117,109.57 4.478,164.366c0.102,4.132 -0.429,8.334 0.134,12.393c3.612,26.097 -1.122,34.102 -24.497,42.976c-32.187,12.22 -64.324,24.585 -96.28,37.391c-85.473,34.251 -170.79,68.892 -256.26,103.151c-113.73,45.588 -227.569,90.9 -341.316,136.445c-99.616,39.888 -198.874,80.691 -298.979,119.307c-21.516,8.3 -29.158,19.924 -29.127,41.65c0.333,239.815 0.209,479.631 0.209,719.446l0,21.956c-44.48,19.21 -87.98,38.459 -131.843,56.837c-73.908,30.968 -148.208,61.004 -222.043,92.144c-66.574,28.077 -132.528,57.631 -199.152,85.59c-86.709,36.388 -173.86,71.718 -260.725,107.737c-86.278,35.776 -172.478,71.744 -258.531,108.056c-4.546,1.918 -7.405,7.836 -11.05,11.892c-15.27,0 -30.539,0 -47.714,-1.938c-1.904,-523.791 -1.904,-1045.645 -1.904,-1569.224c-28.714,10.803 -56.093,20.786 -83.237,31.373c-98.382,38.368 -200.18,52.648 -304.105,33.933c-106.974,-19.264 -199.821,-67.442 -273.836,-149.422c-60.453,-66.958 -101.426,-143.06 -116.526,-232.517c-0.401,-2.375 -5.185,-4.009 -7.925,-5.989c0,-69.002 0,-138.003 1.718,-208.966c3.307,-3.692 5.729,-5.16 6.362,-7.187c14.398,-46.1 25.254,-93.654 43.742,-138.033c20.216,-48.525 48.775,-92.7 82.06,-134.594c58.983,-74.24 128.123,-135.043 213.039,-176.363c56.527,-27.506 115.017,-51.191 173.603,-74.093c14.246,-5.568 11.366,-11.467 9.008,-20.426c-19.424,-73.791 -21.163,-148.289 -13.218,-223.987c6.462,-61.573 20.993,-120.907 40.687,-179.074c33.136,-97.868 80.374,-188.518 136.762,-275.366c50.745,-78.157 108.882,-149.896 171.493,-218.128c37.187,-40.527 76.953,-79.204 119.015,-114.609c51.261,-43.148 104.563,-84.306 159.833,-122.162c89.434,-61.255 184.752,-112.5 290.088,-140.808c59.073,-15.876 119.598,-26.842 179.917,-37.483c97.176,-17.143 195.519,-20.851 294.019,-20.98c5.513,-0.007 11.189,0.835 16.513,-0.176c64.258,-12.187 129.035,-22.303 192.515,-37.735c57.169,-13.898 113.577,-31.79 169.079,-51.43c57.915,-20.494 114.863,-43.99 171.25,-68.441c39.837,-17.274 78.409,-37.617 116.865,-57.881c43.15,-22.738 86.242,-45.748 128.059,-70.813c43.945,-26.341 85.487,-56.725 129.7,-82.57c34.827,-20.358 61.64,-53.837 103.158,-63.207c0.593,-0.134 0.357,-3.949 0.508,-6.046m-994.532,1753.254c30.385,-24.858 62.456,-47.946 90.793,-74.951c54.35,-51.796 108.554,-104.015 159.131,-159.424c49.689,-54.436 97.612,-110.988 141.18,-170.376c49.131,-66.97 93.833,-137.328 138.022,-207.743c36.253,-57.766 71.802,-116.325 102.52,-177.132c44.797,-88.675 87.851,-178.477 126.246,-270.062c31.937,-76.181 58.193,-154.962 83.028,-233.83c20.034,-63.622 34.192,-129.094 51.924,-197.476c-27.9,16.67 -51.2,31.584 -75.4,44.857c-60.377,33.116 -120.366,67.091 -182.022,97.675c-55.021,27.293 -111.434,52.07 -168.387,75.1c-61.909,25.035 -124.082,50.462 -188.086,68.996c-76.496,22.152 -154.732,38.763 -232.847,54.666c-43.379,8.831 -87.973,12.064 -132.159,16.417c-28.31,2.789 -56.958,2.051 -85.305,4.585c-70.659,6.313 -141.305,12.923 -211.817,20.674c-69.832,7.676 -136.791,28.232 -200.74,55.881c-43.287,18.715 -85.019,42.886 -123.717,69.949c-69.046,48.285 -136.309,99.708 -194.497,160.988c-44.013,46.351 -83.903,96.616 -125.649,145.122c-56.275,65.389 -98.243,140.026 -133.519,217.837c-21.944,48.404 -35.214,100.766 -51.863,151.52c-2.879,8.779 -3.181,18.403 -4.414,26.029c36.763,-29.32 72.609,-58.971 109.565,-87.168c85.323,-65.101 183.14,-92.72 289.329,-95.598c28.265,-0.766 57.56,-1.217 84.4,-8.811c53.234,-15.061 107.181,-30.572 156.942,-54.122c53.024,-25.093 101.192,-60.308 152.188,-89.884c25.315,-14.683 54.087,-18.334 81.433,-8.237c37.707,13.923 53.799,45.723 47.96,87.813c-8.056,58.084 -19.868,115.178 -40.134,170.573c-30.57,83.564 -66.453,164.192 -111.876,241.09c-42.224,71.48 -90.255,138.028 -146.94,198.278c-25.751,27.371 -52.718,54.1 -82.042,77.47c-31.525,25.122 -66.29,46.223 -99.983,68.561c-16.528,10.958 -33.83,20.749 -51.172,31.305c16.234,2.036 30.953,5.193 45.729,5.482c38.573,0.755 77.171,0.305 115.759,0.242c55.546,-0.09 110.721,-6.364 163.909,-21.295c70.539,-19.803 140.259,-42.835 209.438,-67.033c33.394,-11.681 65.575,-27.66 96.816,-44.462c39.617,-21.305 78.115,-44.788 116.339,-68.548c26.591,-16.529 51.907,-35.107 79.913,-54.955m-295.379,1167.818c8.222,-2.659 16.627,-4.855 24.638,-8.044c130.445,-51.941 260.898,-103.861 391.232,-156.082c177.698,-71.198 355.259,-142.734 533.031,-213.746c9.302,-3.716 9.585,-5.977 6.882,-15.774c-10.82,-39.217 -30.067,-73.911 -54.903,-105.236c-39.365,-49.651 -90.023,-85.721 -149.611,-105.85c-52.204,-17.634 -106.092,-25.587 -162.688,-18.35c-52.172,6.671 -102.595,18.01 -151.031,37.008c-107.307,42.09 -213.76,86.355 -320.783,129.178c-115.601,46.254 -231.568,91.59 -347.16,137.866c-87.34,34.965 -174.038,71.561 -261.775,105.484c-15.683,6.064 -21.054,11.771 -21.037,28.11c0.391,385.915 0.3,771.83 0.341,1157.743c0.001,5.861 0.568,11.722 0.981,19.736c51.907,-21.706 102.009,-42.388 151.897,-63.578c83.574,-35.497 166.664,-72.164 250.692,-106.546c29.554,-12.093 38.201,-9.17 38.444,-55.439c0.276,-52.721 -3.413,-105.454 -3.563,-158.187c-0.5,-176.416 -0.54,-352.837 0.165,-529.252c0.113,-28.376 8.384,-54.354 40.362,-64.417c10.697,-3.366 20.905,-8.284 33.887,-14.626m-304.04,-1374.657c23.851,-51.213 47.701,-102.425 71.553,-153.639c-37.853,10.358 -70.029,25.542 -103.681,35.945c-48.129,14.878 -96.791,29.314 -146.258,38.188c-41.164,7.384 -84.016,4.804 -125.732,9.853c-26.735,3.236 -55.747,6.975 -78.561,19.74c-76.617,42.87 -136.599,103.262 -170.614,185.809c-13.659,33.148 -23.359,68.919 -12.298,104.164c19.182,61.124 64.57,84.992 127.909,90.365c47.382,4.019 92.807,-7.462 137.106,-24.305c61.073,-23.223 112.674,-60.852 157.351,-107.053c56.484,-58.409 102.984,-124.711 143.227,-199.065l-0.001,-0.001Z" style="fill:#fff;fill-rule:nonzero;"/></g><g><g><g><text x="4346.871px" y="2352.522px" style="font-family:'ArialMT', 'Arial', sans-serif;font-size:1666.667px;fill:#fffcfc;">F</text><text x="5272.975px" y="2352.522px" style="font-family:'ArialMT', 'Arial', sans-serif;font-size:1666.667px;fill:#fffcfc;">AITH</text></g></g><g><text x="4441.963px" y="3218.774px" style="font-family:'ArialMT', 'Arial', sans-serif;font-size:916.667px;fill:#fffcfc;">CONNECT</text></g></g></g></svg>