<?xml version="1.0" encoding="UTF-8" standalone="no"?><!DOCTYPE svg PUBLIC "-//W3C//DTD SVG 1.1//EN" "http://www.w3.org/Graphics/SVG/1.1/DTD/svg11.dtd"><svg width="100%" height="100%" viewBox="0 0 1063 1063" version="1.1" xmlns="http://www.w3.org/2000/svg" xmlns:xlink="http://www.w3.org/1999/xlink" xml:space="preserve" xmlns:serif="http://www.serif.com/" style="fill-rule:evenodd;clip-rule:evenodd;stroke-linejoin:round;stroke-miterlimit:2;"><path d="M890.572,1c0.428,21.997 0.701,43.998 0.349,65.988c-0.327,20.406 -3.05,40.517 -7.548,60.505c-6.108,27.146 -15.765,52.881 -28.449,77.503c-9.692,18.814 -21.35,36.453 -34.523,53.026c-6.911,8.694 -13.865,17.421 -21.527,25.439c-20.503,21.454 -43.601,39.764 -68.736,55.581c-19.954,12.556 -41.379,22.018 -63.092,30.892c-20.754,8.482 -41.645,16.629 -62.487,24.897c-29.624,11.753 -59.29,23.398 -88.876,35.246c-27.661,11.078 -55.222,22.408 -82.862,33.538c-21.541,8.674 -43.096,17.315 -64.722,25.776c-21.311,8.338 -42.978,15.818 -64.014,24.788c-24.979,10.652 -41.846,28.783 -47.119,56.33c-2.31,12.069 -0.56,23.062 6.934,33.125c5.244,7.043 12.341,10.476 20.551,12.38c12.584,2.918 23.868,-1.406 35.212,-5.948c31.076,-12.442 62.219,-24.716 93.321,-37.092c23.367,-9.298 46.707,-18.662 70.068,-27.975c29.308,-11.684 58.635,-23.323 87.934,-35.032c10.565,-4.222 21.029,-8.698 31.616,-12.864c18.919,-7.444 37.715,-15.262 56.904,-21.941c16.818,-5.854 34.241,-9.05 52.182,-10.409c23.662,-1.792 46.51,1.417 68.742,8.629c16.533,5.363 31.82,13.767 45.776,24.328c20.242,15.317 36.053,34.387 47.095,57.183c8.097,16.716 14.291,34.227 15.594,52.926c1.17,16.796 1.394,33.656 2.147,50.483c0.131,2.921 -0.801,3.985 -3.706,5.131c-46.628,18.407 -93.173,37.023 -139.708,55.663c-29.146,11.675 -58.239,23.484 -87.37,35.198c-5.793,2.33 -11.654,4.49 -17.477,6.747c-3.186,1.235 -4.941,2.822 -4.926,7.007c0.212,58.657 0.144,117.315 0.144,175.972l0,5.781c-16.87,7.078 -33.709,14.124 -50.532,21.206c-13.881,5.844 -27.738,11.744 -41.616,17.596c-15.353,6.475 -30.712,12.936 -46.076,19.382c-15.658,6.57 -31.328,13.109 -46.989,19.671c-15.367,6.439 -30.727,12.893 -46.092,19.335c-11.97,5.018 -23.947,10.018 -35.904,15.066c-0.545,0.23 -0.92,0.864 -1.082,1.626c-1.423,0.316 -3.137,0.316 -5.28,0.316c-0.428,-127.278 -0.428,-254.556 -0.428,-382.53c-8.361,3.134 -16.141,6.007 -23.889,8.964c-18.742,7.151 -38.227,9.976 -58.102,8.432c-22.585,-1.755 -43.132,-9.517 -61.66,-22.877c-14.234,-10.264 -25.03,-23.438 -33.005,-38.654c-6.472,-12.349 -11.243,-25.657 -12.291,-39.838c-0.621,-8.393 -1.15,-16.834 -0.962,-25.237c0.382,-16.984 4.617,-33.197 11.114,-48.835c9.22,-22.19 23.213,-41.019 40.975,-57.025c13.541,-12.202 28.983,-21.543 45.888,-28.356c20.945,-8.442 41.962,-16.708 62.95,-25.044c8.486,-3.37 16.853,-7.112 25.518,-9.936c4.946,-1.612 5.691,-4.978 6.51,-9.117c3.224,-16.283 6.091,-32.664 10.111,-48.754c4.673,-18.705 12.3,-36.421 20.827,-53.691c9,-18.23 19.767,-35.399 31.788,-51.799c13.794,-18.818 29.494,-36.004 46.813,-51.487c20.162,-18.025 41.887,-34.229 66.352,-46.092c19.025,-9.225 38.393,-17.792 57.886,-25.994c20.662,-8.694 41.653,-16.607 62.498,-24.869c27.991,-11.094 56.006,-22.129 83.96,-33.314c25.881,-10.355 51.677,-20.923 77.548,-31.303c19.027,-7.634 38.121,-15.101 57.162,-22.7c1.298,-0.518 2.4,-1.527 3.302,-2.625c1.423,-0.318 3.137,-0.318 5.28,-0.318m-129.172,623.963c14.527,-5.87 29.054,-11.741 43.742,-17.677c-4.956,-17.997 -14.462,-32.88 -29.487,-44.017c-12.564,-9.313 -26.846,-14.685 -42.286,-16.146c-19.481,-1.843 -38.233,2.131 -56.32,9.327c-31.548,12.551 -63.091,25.115 -94.601,37.76c-45.142,18.116 -90.253,36.31 -135.316,54.446l0,290.84c1.569,-0.255 3.128,-0.218 4.442,-0.767c15.078,-6.296 30.129,-12.657 45.166,-19.05c17.7,-7.525 35.267,-15.381 53.151,-22.437c4.091,-1.614 5.187,-3.204 5.179,-7.226c-0.103,-56.992 0.138,-113.986 -0.293,-170.975c-0.065,-8.558 1.873,-12.787 10.362,-15.971c27.74,-10.407 55.036,-21.992 82.549,-33.01c37.617,-15.063 75.276,-30.021 113.712,-45.099m-189.428,-306.422c12.597,-5.166 25.159,-10.42 37.8,-15.477c15.746,-6.299 31.773,-11.945 47.29,-18.758c22.606,-9.925 43.186,-23.165 61.806,-39.534c14.663,-12.89 28.174,-26.825 39.924,-42.347c11.864,-15.672 21.761,-32.633 29.76,-50.61c3.244,-7.29 5.714,-14.924 8.682,-22.79c-4.489,0.849 -8.483,0.986 -11.986,2.367c-23.83,9.392 -47.542,19.082 -71.321,28.603c-20.958,8.391 -42.101,16.338 -62.894,25.117c-24.786,10.465 -50.503,18.752 -74.009,32.253c-17.983,10.329 -34.444,22.628 -49.491,36.751c-16.733,15.706 -31.099,33.413 -43.26,52.976c-10.732,17.264 -19.397,35.407 -26.31,55.113c3.29,-0.586 6.304,-0.629 8.926,-1.666c23.818,-9.422 47.558,-19.04 71.341,-28.55c10.998,-4.398 22.04,-8.685 33.74,-13.448Z" style="fill:#fff;fill-rule:nonzero;"/></svg>