<?xml version="1.0" encoding="UTF-8" standalone="no"?>
<!DOCTYPE svg PUBLIC "-//W3C//DTD SVG 1.1//EN" "http://www.w3.org/Graphics/SVG/1.1/DTD/svg11.dtd">
<svg width="100%" height="100%" viewBox="0 0 2291 1063" version="1.1" xmlns="http://www.w3.org/2000/svg" xmlns:xlink="http://www.w3.org/1999/xlink" xml:space="preserve" xmlns:serif="http://www.serif.com/" style="fill-rule:evenodd;clip-rule:evenodd;stroke-linejoin:round;stroke-miterlimit:2;">
    <g>
        <g transform="matrix(1,0,0,1,-86.05189,-1)">
            <path d="M890.572,1C891,22.997 891.273,44.998 890.92,66.988C890.593,87.394 887.87,107.505 883.373,127.493C877.264,154.639 867.607,180.375 854.924,204.996C845.232,223.81 833.574,241.449 820.401,258.022C813.49,266.716 806.535,275.443 798.873,283.461C778.37,304.915 755.273,323.225 730.137,339.042C710.183,351.598 688.759,361.059 667.045,369.933C646.291,378.415 625.4,386.562 604.559,394.831C574.935,406.583 545.268,418.228 515.683,430.077C488.021,441.154 460.461,452.485 432.821,463.614C411.279,472.288 389.724,480.93 368.099,489.39C346.788,497.728 325.121,505.208 304.085,514.178C279.106,524.83 262.239,542.961 256.966,570.508C254.656,582.577 256.406,593.57 263.9,603.633C269.145,610.676 276.242,614.109 284.452,616.013C297.036,618.931 308.319,614.607 319.663,610.065C350.739,597.622 381.882,585.349 412.984,572.973C436.351,563.675 459.692,554.311 483.053,544.998C512.361,533.314 541.688,521.674 570.987,509.966C581.552,505.744 592.016,501.268 602.602,497.103C621.521,489.659 640.317,481.841 659.506,475.161C676.325,469.307 693.747,466.111 711.688,464.753C735.35,462.961 758.198,466.17 780.43,473.381C796.963,478.744 812.25,487.148 826.206,497.709C846.448,513.026 862.259,532.096 873.301,554.892C881.398,571.608 887.592,589.118 888.895,607.818C890.066,624.613 890.289,641.474 891.043,658.301C891.173,661.222 890.241,662.286 887.337,663.432C840.709,681.839 794.164,700.455 747.629,719.095C718.483,730.77 689.39,742.579 660.259,754.293C654.466,756.623 648.605,758.783 642.782,761.04C639.597,762.275 637.841,763.862 637.856,768.047C638.068,826.704 638,885.362 638,944.019L638,949.8C621.13,956.878 604.291,963.924 587.468,971.007C573.587,976.851 559.73,982.75 545.852,988.603C530.5,995.078 515.141,1001.539 499.776,1007.985C484.118,1014.555 468.448,1021.094 452.787,1027.656C437.42,1034.095 422.06,1040.55 406.695,1046.991C394.725,1052.009 382.748,1057.009 370.791,1062.057C370.246,1062.287 369.871,1062.921 369.709,1063.684C368.286,1064 366.571,1064 364.428,1064C364,936.722 364,809.444 364,681.47C355.639,684.605 347.859,687.478 340.111,690.434C321.369,697.585 301.884,700.41 282.009,698.866C259.423,697.11 238.877,689.349 220.348,675.988C206.114,665.725 195.318,652.55 187.344,637.334C180.871,624.986 176.101,611.677 175.052,597.497C174.432,589.104 173.902,580.662 174.091,572.26C174.472,555.276 178.707,539.062 185.204,523.425C194.424,501.235 208.418,482.406 226.179,466.4C239.72,454.198 255.163,444.857 272.067,438.043C293.013,429.601 314.029,421.336 335.017,413C343.504,409.629 351.87,405.888 360.535,403.064C365.481,401.452 366.227,398.086 367.046,393.947C370.27,377.664 373.137,361.283 377.156,345.193C381.829,326.488 389.457,308.771 397.983,291.501C406.983,273.272 417.75,256.102 429.771,239.702C443.565,220.884 459.265,203.698 476.584,188.215C496.746,170.19 518.471,153.986 542.936,142.123C561.961,132.897 581.329,124.331 600.822,116.129C621.484,107.435 642.475,99.522 663.32,91.26C691.31,80.166 719.325,69.131 747.28,57.946C773.161,47.592 798.957,37.023 824.828,26.643C843.855,19.009 862.949,11.542 881.99,3.943C883.288,3.425 884.39,2.416 885.292,1.318C886.714,1 888.429,1 890.572,1M761.399,624.963C775.926,619.092 790.453,613.222 805.141,607.286C800.185,589.288 790.679,574.405 775.654,563.269C763.09,553.956 748.808,548.584 733.369,547.123C713.887,545.28 695.136,549.254 677.049,556.45C645.5,569.001 613.958,581.565 582.447,594.21C537.305,612.326 492.194,630.521 447.132,648.657L447.132,939.496C448.701,939.241 450.26,939.278 451.574,938.729C466.651,932.433 481.702,926.073 496.739,919.68C514.439,912.155 532.007,904.299 549.89,897.243C553.982,895.628 555.077,894.038 555.07,890.017C554.967,833.025 555.207,776.031 554.777,719.042C554.712,710.484 556.65,706.256 565.139,703.071C592.878,692.664 620.175,681.079 647.687,670.062C685.304,654.998 722.963,640.041 761.399,624.963M571.971,318.54C584.568,313.374 597.13,308.12 609.771,303.063C625.517,296.764 641.544,291.118 657.061,284.305C679.667,274.38 700.247,261.14 718.867,244.772C733.53,231.881 747.04,217.947 758.791,202.425C770.655,186.753 780.552,169.792 788.551,151.815C791.795,144.525 794.265,136.891 797.234,129.026C792.744,129.875 788.751,130.012 785.247,131.393C761.418,140.784 737.706,150.475 713.926,159.996C692.969,168.387 671.825,176.333 651.033,185.112C626.247,195.577 600.53,203.864 577.024,217.365C559.041,227.694 542.58,239.993 527.533,254.116C510.8,269.822 496.434,287.528 484.273,307.092C473.541,324.356 464.876,342.499 457.964,362.205C461.253,361.619 464.268,361.576 466.889,360.539C490.707,351.117 514.448,341.499 538.231,331.989C549.229,327.591 560.271,323.303 571.971,318.54Z" style="fill:white;fill-rule:nonzero;"/>
        </g>
        <g transform="matrix(1,0,0,1.13798,-135.05189,72.325036)">
            <rect x="1070" y="52" width="16" height="703" style="fill:rgb(255,252,252);"/>
        </g>
        <g transform="matrix(1,0,0,1,-125.05189,47.082225)">
            <g transform="matrix(1,0,0,1,1,-15)">
                <g transform="matrix(400,0,0,400,2340.699219,532.523438)">
                </g>
                <text x="1207.301px" y="532.523px" style="font-family:'ArialMT', 'Arial', sans-serif;font-size:400px;fill:rgb(255,252,252);">F<tspan x="1429.566px 1696.363px " y="532.523px 532.523px ">AI</tspan>TH</text>
            </g>
            <g transform="matrix(1,0,0,1,1205,567.83555)">
                <g transform="matrix(220,0,0,220,1113.876953,157.587891)">
                </g>
                <text x="26.123px" y="157.588px" style="font-family:'ArialMT', 'Arial', sans-serif;font-size:220px;fill:rgb(255,252,252);">CONNECT</text>
            </g>
        </g>
    </g>
</svg>
