<?xml version="1.0" encoding="UTF-8" standalone="no"?><!DOCTYPE svg PUBLIC "-//W3C//DTD SVG 1.1//EN" "http://www.w3.org/Graphics/SVG/1.1/DTD/svg11.dtd"><svg width="100%" height="100%" viewBox="0 0 37796 18438" version="1.1" xmlns="http://www.w3.org/2000/svg" xmlns:xlink="http://www.w3.org/1999/xlink" xml:space="preserve" xmlns:serif="http://www.serif.com/" style="fill-rule:evenodd;clip-rule:evenodd;stroke-linejoin:round;stroke-miterlimit:2;"><g><g><rect x="15537.292" y="2282.988" width="277.779" height="13888.888" style="fill:#fffcfc;"/></g><g><clipPath id="_clip1"><rect x="0" y="0" width="12681.725" height="18437.5"/></clipPath><g clip-path="url(#_clip1)"><path d="M12249.629,17.229c75.067,0 150.129,0 228.2,5.283c40.812,30.658 81.871,52.337 115.75,82.171c73.113,64.383 71.504,152.479 71.275,240.846c-0.058,22.621 21.242,45.3 32.725,67.958c0,40.842 0,81.683 -6.6,124.958c-13.688,31.454 -25.142,60.183 -27.088,89.55c-7.712,116.142 3.275,235.917 -21.242,348.1c-72.083,329.879 -149.442,659.133 -240.812,984.108c-75.292,267.796 -167.421,531.392 -263.65,792.587c-67.533,183.312 -150.504,361.342 -233.612,538.433c-181.304,386.338 -359.371,774.521 -553.95,1154.167c-116.321,226.954 -257.775,441.471 -394.508,657.408c-144.188,227.713 -291.108,454.071 -446.421,674.258c-124.842,176.988 -258.008,348.958 -398.158,514.096c-221.467,260.95 -444.783,521.079 -680.925,768.571c-164.421,172.321 -348.975,325.963 -529.5,482.217c-149.054,129.021 -298.6,259.396 -460.104,371.654c-231.379,160.821 -469.392,313.346 -712.938,455.042c-206.446,120.112 -420.467,229.596 -639.075,325.725c-201.233,88.492 -410.163,162.604 -620.962,225.371c-233.292,69.467 -470.154,133.45 -709.887,172.967c-249.1,41.058 -503.137,61.888 -755.671,69.329c-212.008,6.246 -427.975,-1.3 -636.679,-35.933c-229.863,-38.146 -458.908,-87.496 -678.846,-179.246c-168.55,-70.317 -334.596,-139.1 -488.196,-238.788c-28.304,-18.367 -81.233,-17.967 -115.117,-5.437c-222.575,82.275 -442.25,172.346 -664.387,255.846c-277.538,104.329 -535.05,237.142 -719.475,480.117c-176.571,232.629 -278.571,491.542 -250.333,786.833c14.333,149.883 83.217,289.158 198.8,382.596c187.325,151.437 409.154,192.967 638.288,107.408c431.667,-161.188 860.867,-329.1 1289.454,-498.354c444.167,-175.408 885.929,-356.875 1329.583,-533.588c499.871,-199.104 1000.762,-395.658 1501.05,-593.717c313.021,-123.917 625.738,-248.608 938.621,-372.875c297.529,-118.171 593.887,-239.417 892.971,-353.508c340.092,-129.737 693.337,-210.371 1056.475,-229.029c353.05,-18.142 700.688,19.712 1045.379,114.283c419.783,115.179 783.554,323.217 1105.375,607.267c205.408,181.3 378.75,391.613 517.892,631.288c218.217,375.879 361.233,774.312 388.196,1209.221c14.121,227.796 12.988,456.542 18.658,684.858c0.425,17.217 -1.788,34.725 0.558,51.638c15.05,108.738 -4.675,142.092 -102.071,179.067c-134.112,50.917 -268.017,102.438 -401.167,155.796c-356.137,142.713 -711.625,287.05 -1067.75,429.796c-473.875,189.95 -948.204,378.75 -1422.15,568.521c-415.067,166.2 -828.642,336.212 -1245.746,497.112c-89.65,34.583 -121.492,83.017 -121.362,173.542c1.387,999.229 0.871,1998.462 0.871,2997.692l0,91.483c-185.333,80.042 -366.583,160.246 -549.346,236.821c-307.95,129.033 -617.533,254.183 -925.179,383.933c-277.392,116.988 -552.2,240.129 -829.8,356.625c-361.288,151.617 -724.417,298.825 -1086.354,448.904c-359.492,149.067 -718.658,298.933 -1077.212,450.233c-18.942,7.992 -30.854,32.65 -46.042,49.55c-63.625,0 -127.246,0 -198.808,-8.075c-7.933,-2182.463 -7.933,-4356.854 -7.933,-6538.433c-119.642,45.012 -233.721,86.608 -346.821,130.721c-409.925,159.867 -834.083,219.367 -1267.104,141.388c-445.725,-80.267 -832.587,-281.008 -1140.983,-622.592c-251.887,-278.992 -422.608,-596.083 -485.525,-968.821c-1.671,-9.896 -21.604,-16.704 -33.021,-24.954c0,-287.508 0,-575.013 7.158,-870.692c13.779,-15.383 23.871,-21.5 26.508,-29.946c59.992,-192.083 105.225,-390.225 182.258,-575.137c84.233,-202.188 203.229,-386.25 341.917,-560.808c245.763,-309.333 533.846,-562.679 887.663,-734.846c235.529,-114.608 479.237,-213.296 723.346,-308.721c59.358,-23.2 47.358,-47.779 37.533,-85.108c-80.933,-307.462 -88.179,-617.871 -55.075,-933.279c26.925,-256.554 87.471,-503.779 169.529,-746.142c138.067,-407.783 334.892,-785.492 569.842,-1147.358c211.438,-325.654 453.675,-624.567 714.554,-908.867c154.946,-168.863 320.638,-330.017 495.896,-477.538c213.588,-179.783 435.679,-351.275 665.971,-509.008c372.642,-255.229 769.8,-468.75 1208.7,-586.7c246.138,-66.15 498.325,-111.842 749.654,-156.179c404.9,-71.429 814.663,-86.879 1225.079,-87.417c22.971,-0.029 46.621,3.479 68.804,-0.733c267.742,-50.779 537.646,-92.929 802.146,-157.229c238.204,-57.908 473.237,-132.458 704.496,-214.292c241.312,-85.392 478.596,-183.292 713.542,-285.171c165.988,-71.975 326.704,-156.737 486.938,-241.171c179.792,-94.742 359.342,-190.617 533.579,-295.054c183.104,-109.754 356.196,-236.354 540.417,-344.042c145.113,-84.825 256.833,-224.321 429.825,-263.363c2.471,-0.558 1.487,-16.454 2.117,-25.192m-4143.883,7305.225c126.604,-103.575 260.233,-199.775 378.304,-312.296c226.458,-215.817 452.308,-433.396 663.046,-664.267c207.038,-226.817 406.717,-462.45 588.25,-709.9c204.712,-279.042 390.971,-572.2 575.092,-865.596c151.054,-240.692 299.175,-484.688 427.167,-738.05c186.654,-369.479 366.046,-743.654 526.025,-1125.258c133.071,-317.421 242.471,-645.675 345.95,-974.292c83.475,-265.092 142.467,-537.892 216.35,-822.817c-116.25,69.458 -213.333,131.6 -314.167,186.904c-251.571,137.983 -501.525,279.546 -758.425,406.979c-229.254,113.721 -464.308,216.958 -701.612,312.917c-257.954,104.312 -517.008,210.258 -783.692,287.483c-318.733,92.3 -644.717,161.513 -970.196,227.775c-180.746,36.796 -366.554,50.267 -550.662,68.404c-117.958,11.621 -237.325,8.546 -355.438,19.104c-294.413,26.304 -588.771,53.846 -882.571,86.142c-290.967,31.983 -569.962,117.633 -836.417,232.837c-180.363,77.979 -354.246,178.692 -515.488,291.454c-287.692,201.188 -567.954,415.45 -810.404,670.783c-183.387,193.129 -349.596,402.567 -523.537,604.675c-234.479,272.454 -409.346,583.442 -556.329,907.654c-91.433,201.683 -146.725,419.858 -216.096,631.333c-11.996,36.579 -13.254,76.679 -18.392,108.454c153.179,-122.167 302.537,-245.713 456.521,-363.2c355.512,-271.254 763.083,-386.333 1205.537,-398.325c117.771,-3.192 239.833,-5.071 351.667,-36.712c221.808,-62.754 446.588,-127.383 653.925,-225.508c220.933,-104.554 421.633,-251.283 634.117,-374.517c105.479,-61.179 225.363,-76.392 339.304,-34.321c157.113,58.012 224.163,190.512 199.833,365.887c-33.567,242.017 -82.783,479.908 -167.225,710.721c-127.375,348.183 -276.887,684.133 -466.15,1004.542c-175.933,297.833 -376.062,575.117 -612.25,826.158c-107.296,114.046 -219.658,225.417 -341.842,322.792c-131.354,104.675 -276.208,192.596 -416.596,285.671c-68.867,45.658 -140.958,86.454 -213.217,130.438c67.642,8.483 128.971,21.638 190.538,22.842c160.721,3.146 321.546,1.271 482.329,1.008c231.442,-0.375 461.337,-26.517 682.954,-88.729c293.913,-82.513 584.413,-178.479 872.658,-279.304c139.142,-48.671 273.229,-115.25 403.4,-185.258c165.071,-88.771 325.479,-186.617 484.746,-285.617c110.796,-68.871 216.279,-146.279 332.971,-228.979m-1230.746,4865.908c34.258,-11.079 69.279,-20.229 102.658,-33.517c543.521,-216.421 1087.075,-432.754 1630.133,-650.342c740.408,-296.658 1480.246,-594.725 2220.963,-890.608c38.758,-15.483 39.938,-24.904 28.675,-65.725c-45.083,-163.404 -125.279,-307.963 -228.762,-438.483c-164.021,-206.879 -375.096,-357.171 -623.379,-441.042c-217.517,-73.475 -442.05,-106.612 -677.867,-76.458c-217.383,27.796 -427.479,75.042 -629.296,154.2c-447.113,175.375 -890.667,359.812 -1336.596,538.242c-481.671,192.725 -964.867,381.625 -1446.5,574.442c-363.917,145.688 -725.158,298.171 -1090.729,439.517c-65.346,25.267 -87.725,49.046 -87.654,117.125c1.629,1607.979 1.25,3215.958 1.421,4823.929c0.004,24.421 2.367,48.842 4.088,82.233c216.279,-90.442 425.037,-176.617 632.904,-264.908c348.225,-147.904 694.433,-300.683 1044.55,-443.942c123.142,-50.387 159.171,-38.208 160.183,-230.996c1.15,-219.671 -14.221,-439.392 -14.846,-659.112c-2.083,-735.067 -2.25,-1470.154 0.688,-2205.217c0.471,-118.233 34.933,-226.475 168.175,-268.404c44.571,-14.025 87.104,-34.517 141.196,-60.942m-1266.833,-5727.738c99.379,-213.388 198.754,-426.771 298.138,-640.163c-157.721,43.158 -291.788,106.425 -432.004,149.771c-200.537,61.992 -403.296,122.142 -609.408,159.117c-171.517,30.767 -350.067,20.017 -523.883,41.054c-111.396,13.483 -232.279,29.062 -327.338,82.25c-319.238,178.625 -569.163,430.258 -710.892,774.204c-56.912,138.117 -97.329,287.163 -51.242,434.017c79.925,254.683 269.042,354.133 532.954,376.521c197.425,16.746 386.696,-31.092 571.275,-101.271c254.471,-96.762 469.475,-253.55 655.629,-446.054c235.35,-243.371 429.1,-519.629 596.779,-829.438l-0.008,-0.008Z" style="fill:#fff;fill-rule:nonzero;"/></g></g><g><g><g><text x="18111.963px" y="9802.175px" style="font-family:'ArialMT', 'Arial', sans-serif;font-size:6944.446px;fill:#fffcfc;">F</text><text x="21970.729px" y="9802.175px" style="font-family:'ArialMT', 'Arial', sans-serif;font-size:6944.446px;fill:#fffcfc;">AITH</text></g></g><g><g transform="matrix(0.985606,0,0,1,266.58663,0)"><g transform="matrix(3609.782637,0,0,3609.782637,37775.733295,13336.466558)"></g><text x="18521.209px" y="13336.467px" style="font-family:'ArialMT', 'Arial', sans-serif;font-size:3609.783px;fill:#fffcfc;">CONEXION</text></g></g></g></g></svg>